<?xml version="1.0" encoding="UTF-8"?>
<svg width="2500" height="2500" version="1.1" viewBox="0 0 700 700" xmlns="http://www.w3.org/2000/svg" xmlns:xlink="http://www.w3.org/1999/xlink">
 <defs>
  <symbol id="u" overflow="visible">
   <path d="m19.969-1.1875c-1.0312 0.53125-2.1055 0.93359-3.2188 1.2031-1.1172 0.26953-2.2812 0.40625-3.5 0.40625-3.6172 0-6.4805-1.0078-8.5938-3.0312-2.1172-2.0195-3.1719-4.7656-3.1719-8.2344s1.0547-6.2109 3.1719-8.2344c2.1133-2.0195 4.9766-3.0312 8.5938-3.0312 1.2188 0 2.3828 0.13672 3.5 0.40625 1.1133 0.27344 2.1875 0.67188 3.2188 1.2031v4.5c-1.043-0.70703-2.0703-1.2266-3.0781-1.5625-1.0117-0.33203-2.0742-0.5-3.1875-0.5-2 0-3.5742 0.64062-4.7188 1.9219-1.1367 1.2812-1.7031 3.0469-1.7031 5.2969 0 2.2422 0.56641 4 1.7031 5.2812 1.1445 1.2812 2.7188 1.9219 4.7188 1.9219 1.1133 0 2.1758-0.16016 3.1875-0.48438 1.0078-0.33203 2.0352-0.85156 3.0781-1.5625z"/>
  </symbol>
  <symbol id="c" overflow="visible">
   <path d="m14.609-11.859c-0.46094-0.20703-0.91406-0.36328-1.3594-0.46875-0.44922-0.10156-0.90234-0.15625-1.3594-0.15625-1.3438 0-2.375 0.43359-3.0938 1.2969-0.71875 0.85547-1.0781 2.0859-1.0781 3.6875v7.5h-5.2188v-16.297h5.2188v2.6719c0.66406-1.0625 1.4297-1.8359 2.2969-2.3281 0.86328-0.48828 1.9062-0.73438 3.125-0.73438 0.17578 0 0.36328 0.011719 0.5625 0.03125 0.20703 0.011719 0.50391 0.039062 0.89062 0.078125z"/>
  </symbol>
  <symbol id="a" overflow="visible">
   <path d="m18.766-8.1875v1.4844h-12.172c0.125 1.2188 0.5625 2.1367 1.3125 2.75 0.75781 0.60547 1.8203 0.90625 3.1875 0.90625 1.0938 0 2.2109-0.16016 3.3594-0.48438 1.1445-0.32031 2.3281-0.8125 3.5469-1.4688v4.0156c-1.2305 0.46094-2.4648 0.80859-3.7031 1.0469-1.2305 0.23828-2.4609 0.35938-3.6875 0.35938-2.9492 0-5.2422-0.75-6.875-2.25-1.6367-1.5-2.4531-3.6016-2.4531-6.3125 0-2.6562 0.80078-4.7422 2.4062-6.2656 1.6016-1.5195 3.8125-2.2812 6.625-2.2812 2.5625 0 4.6094 0.77344 6.1406 2.3125 1.5391 1.543 2.3125 3.6055 2.3125 6.1875zm-5.3438-1.7344c0-0.98828-0.29297-1.7852-0.875-2.3906-0.57422-0.60156-1.3281-0.90625-2.2656-0.90625-1.0117 0-1.8359 0.28906-2.4688 0.85938-0.625 0.5625-1.0117 1.375-1.1562 2.4375z"/>
  </symbol>
  <symbol id="k" overflow="visible">
   <path d="m9.8125-7.3281c-1.0938 0-1.918 0.18359-2.4688 0.54688-0.54297 0.36719-0.8125 0.90625-0.8125 1.625 0 0.66797 0.21875 1.1875 0.65625 1.5625 0.44531 0.36719 1.0625 0.54688 1.8438 0.54688 0.97656 0 1.8008-0.34766 2.4688-1.0469 0.67578-0.70703 1.0156-1.5859 1.0156-2.6406v-0.59375zm7.9531-1.9688v9.2969h-5.25v-2.4219c-0.69922 0.99219-1.4844 1.7148-2.3594 2.1719-0.875 0.44531-1.9375 0.67188-3.1875 0.67188-1.6875 0-3.0586-0.48828-4.1094-1.4688-1.0547-0.98828-1.5781-2.2695-1.5781-3.8438 0-1.9062 0.65625-3.3047 1.9688-4.2031 1.3125-0.89453 3.375-1.3438 6.1875-1.3438h3.0781v-0.40625c0-0.82031-0.32812-1.4219-0.98438-1.7969-0.64844-0.38281-1.6562-0.57812-3.0312-0.57812-1.1172 0-2.1562 0.10938-3.125 0.32812-0.96094 0.21875-1.8516 0.55469-2.6719 1v-3.9688c1.1133-0.26953 2.2344-0.47266 3.3594-0.60938 1.125-0.14453 2.25-0.21875 3.375-0.21875 2.9375 0 5.0547 0.58594 6.3594 1.75 1.3125 1.1562 1.9688 3.0391 1.9688 5.6406z"/>
  </symbol>
  <symbol id="b" overflow="visible">
   <path d="m8.1875-20.922v4.625h5.375v3.7188h-5.375v6.9219c0 0.75 0.14844 1.2617 0.45312 1.5312 0.30078 0.27344 0.89844 0.40625 1.7969 0.40625h2.6719v3.7188h-4.4688c-2.0547 0-3.5117-0.42578-4.375-1.2812-0.85547-0.86328-1.2812-2.3203-1.2812-4.375v-6.9219h-2.5938v-3.7188h2.5938v-4.625z"/>
  </symbol>
  <symbol id="j" overflow="visible">
   <path d="m13.594-13.906v-8.7344h5.2344v22.641h-5.2344v-2.3594c-0.71875 0.96094-1.5117 1.6641-2.375 2.1094-0.86719 0.44531-1.8672 0.67188-3 0.67188-2.0117 0-3.6641-0.79688-4.9531-2.3906-1.2812-1.5938-1.9219-3.6484-1.9219-6.1719 0-2.5078 0.64062-4.5625 1.9219-6.1562 1.2891-1.5938 2.9414-2.3906 4.9531-2.3906 1.125 0 2.1172 0.23047 2.9844 0.6875 0.875 0.44922 1.6719 1.1484 2.3906 2.0938zm-3.4375 10.547c1.1133 0 1.9609-0.40625 2.5469-1.2188 0.59375-0.82031 0.89062-2.0078 0.89062-3.5625 0-1.5391-0.29688-2.7188-0.89062-3.5312-0.58594-0.82031-1.4336-1.2344-2.5469-1.2344-1.1055 0-1.9531 0.41406-2.5469 1.2344-0.58594 0.8125-0.875 1.9922-0.875 3.5312 0 1.5547 0.28906 2.7422 0.875 3.5625 0.59375 0.8125 1.4414 1.2188 2.5469 1.2188z"/>
  </symbol>
  <symbol id="i" overflow="visible">
   <path d="m11.172-3.3594c1.1133 0 1.9609-0.40625 2.5469-1.2188 0.59375-0.82031 0.89062-2.0078 0.89062-3.5625 0-1.5391-0.29688-2.7188-0.89062-3.5312-0.58594-0.82031-1.4336-1.2344-2.5469-1.2344-1.1172 0-1.9688 0.41406-2.5625 1.2344-0.59375 0.8125-0.89062 1.9922-0.89062 3.5312 0 1.5547 0.29688 2.7422 0.89062 3.5625 0.59375 0.8125 1.4453 1.2188 2.5625 1.2188zm-3.4531-10.547c0.70703-0.94531 1.5-1.6445 2.375-2.0938 0.875-0.45703 1.8789-0.6875 3.0156-0.6875 2.0078 0 3.6562 0.79688 4.9375 2.3906 1.2891 1.5938 1.9375 3.6484 1.9375 6.1562 0 2.5234-0.64844 4.5781-1.9375 6.1719-1.2812 1.5938-2.9297 2.3906-4.9375 2.3906-1.1367 0-2.1406-0.22656-3.0156-0.67188-0.875-0.45703-1.668-1.1602-2.375-2.1094v2.3594h-5.2188v-22.641h5.2188z"/>
  </symbol>
  <symbol id="e" overflow="visible">
   <path d="m0.35938-16.297h5.2188l4.375 11.062 3.7188-11.062h5.2188l-6.8594 17.844c-0.6875 1.8125-1.4922 3.0781-2.4062 3.7969-0.91797 0.72656-2.125 1.0938-3.625 1.0938h-3.0156v-3.4219h1.625c0.88281 0 1.5234-0.14062 1.9219-0.42188 0.40625-0.28125 0.72266-0.78906 0.95312-1.5156l0.14062-0.45312z"/>
  </symbol>
  <symbol id="h" overflow="visible">
   <path d="m15.922-3.9531h-8.7656l-1.375 3.9531h-5.6406l8.0469-21.719h6.6875l8.0469 21.719h-5.6406zm-7.3594-4.0312h5.9375l-2.9688-8.6406z"/>
  </symbol>
  <symbol id="t" overflow="visible">
   <path d="m15.234-15.781v3.9531c-1.1172-0.46875-2.1953-0.81641-3.2344-1.0469-1.0312-0.22656-2.0117-0.34375-2.9375-0.34375-0.99219 0-1.7266 0.125-2.2031 0.375-0.48047 0.24219-0.71875 0.61719-0.71875 1.125 0 0.41797 0.17969 0.74219 0.54688 0.96875 0.36328 0.21875 1.0156 0.38672 1.9531 0.5l0.92188 0.125c2.6641 0.34375 4.457 0.90234 5.375 1.6719 0.92578 0.77344 1.3906 1.9922 1.3906 3.6562 0 1.7305-0.64062 3.0312-1.9219 3.9062s-3.1953 1.3125-5.7344 1.3125c-1.0742 0-2.1875-0.089844-3.3438-0.26562-1.1484-0.16406-2.3242-0.41406-3.5312-0.75v-3.9531c1.0312 0.5 2.0938 0.875 3.1875 1.125s2.2031 0.375 3.3281 0.375c1.0078 0 1.7695-0.14062 2.2812-0.42188 0.51953-0.28125 0.78125-0.69531 0.78125-1.25 0-0.45703-0.17969-0.80078-0.53125-1.0312-0.35547-0.22656-1.0586-0.40625-2.1094-0.53125l-0.92188-0.125c-2.3242-0.28906-3.9492-0.82812-4.875-1.6094-0.92969-0.78125-1.3906-1.9727-1.3906-3.5781 0-1.7266 0.58594-3.0078 1.7656-3.8438 1.1875-0.83203 3.0039-1.25 5.4531-1.25 0.95703 0 1.9609 0.074219 3.0156 0.21875 1.0625 0.14844 2.2109 0.375 3.4531 0.6875z"/>
  </symbol>
  <symbol id="g" overflow="visible">
   <path d="m18.891-9.9219v9.9219h-5.25v-7.5625c0-1.4258-0.03125-2.4062-0.09375-2.9375-0.0625-0.53906-0.17188-0.9375-0.32812-1.1875-0.19922-0.33203-0.47656-0.59375-0.82812-0.78125-0.34375-0.19531-0.74219-0.29688-1.1875-0.29688-1.0859 0-1.9375 0.42188-2.5625 1.2656-0.61719 0.83594-0.92188 1.9961-0.92188 3.4844v8.0156h-5.2188v-22.641h5.2188v8.7344c0.78125-0.94531 1.6094-1.6445 2.4844-2.0938 0.88281-0.45703 1.8633-0.6875 2.9375-0.6875 1.875 0 3.3008 0.57812 4.2812 1.7344 0.97656 1.1562 1.4688 2.8359 1.4688 5.0312z"/>
  </symbol>
  <symbol id="s" overflow="visible">
   <path d="m2.5-22.641h5.2188v22.641h-5.2188z"/>
  </symbol>
  <symbol id="f" overflow="visible">
   <path d="m18.891-9.9219v9.9219h-5.25v-7.5938c0-1.4062-0.03125-2.375-0.09375-2.9062-0.0625-0.53906-0.17188-0.9375-0.32812-1.1875-0.19922-0.33203-0.47656-0.59375-0.82812-0.78125-0.34375-0.19531-0.74219-0.29688-1.1875-0.29688-1.0859 0-1.9375 0.42188-2.5625 1.2656-0.61719 0.83594-0.92188 1.9961-0.92188 3.4844v8.0156h-5.2188v-16.297h5.2188v2.3906c0.78125-0.94531 1.6094-1.6445 2.4844-2.0938 0.88281-0.45703 1.8633-0.6875 2.9375-0.6875 1.875 0 3.3008 0.57812 4.2812 1.7344 0.97656 1.1562 1.4688 2.8359 1.4688 5.0312z"/>
  </symbol>
  <symbol id="r" overflow="visible">
   <path d="m13.219-22.641v3.4219h-2.875c-0.74219 0-1.2578 0.13672-1.5469 0.40625-0.29297 0.26172-0.4375 0.71875-0.4375 1.375v1.1406h4.4531v3.7188h-4.4531v12.578h-5.2031v-12.578h-2.5938v-3.7188h2.5938v-1.1406c0-1.7695 0.49219-3.0781 1.4844-3.9219 0.98828-0.85156 2.5195-1.2812 4.5938-1.2812z"/>
  </symbol>
  <symbol id="d" overflow="visible">
   <path d="m10.25-12.969c-1.1484 0-2.0273 0.41797-2.6406 1.25-0.60547 0.83594-0.90625 2.0273-0.90625 3.5781 0 1.5625 0.30078 2.7617 0.90625 3.5938 0.61328 0.83594 1.4922 1.25 2.6406 1.25 1.1328 0 2.0039-0.41406 2.6094-1.25 0.60156-0.83203 0.90625-2.0312 0.90625-3.5938 0-1.5508-0.30469-2.7422-0.90625-3.5781-0.60547-0.83203-1.4766-1.25-2.6094-1.25zm0-3.7188c2.8125 0 5.0039 0.75781 6.5781 2.2656 1.5703 1.5117 2.3594 3.6055 2.3594 6.2812 0 2.6797-0.78906 4.7773-2.3594 6.2969-1.5742 1.5117-3.7656 2.2656-6.5781 2.2656s-5.0117-0.75391-6.5938-2.2656c-1.5859-1.5195-2.375-3.6172-2.375-6.2969 0-2.6758 0.78906-4.7695 2.375-6.2812 1.582-1.5078 3.7812-2.2656 6.5938-2.2656z"/>
  </symbol>
  <symbol id="q" overflow="visible">
   <path d="m17.609-13.594c0.65625-1.0078 1.4375-1.7734 2.3438-2.2969 0.90625-0.53125 1.8984-0.79688 2.9844-0.79688 1.875 0 3.3008 0.57812 4.2812 1.7344 0.97656 1.1562 1.4688 2.8359 1.4688 5.0312v9.9219h-5.2344v-8.5c0.007813-0.125 0.015625-0.25391 0.015625-0.39062 0.007812-0.13281 0.015625-0.32812 0.015625-0.57812 0-1.1562-0.17188-1.9922-0.51562-2.5156-0.33594-0.51953-0.88281-0.78125-1.6406-0.78125-0.99219 0-1.7578 0.41406-2.2969 1.2344-0.53125 0.8125-0.80859 1.9922-0.82812 3.5312v8h-5.2344v-8.5c0-1.8008-0.15625-2.9609-0.46875-3.4844-0.3125-0.51953-0.86719-0.78125-1.6562-0.78125-1 0-1.7734 0.41406-2.3125 1.2344-0.54297 0.82422-0.8125 1.9961-0.8125 3.5156v8.0156h-5.25v-16.297h5.25v2.3906c0.63281-0.92578 1.3633-1.6172 2.1875-2.0781 0.83203-0.46875 1.75-0.70312 2.75-0.70312 1.125 0 2.1172 0.27344 2.9844 0.8125 0.86328 0.54297 1.5195 1.3047 1.9688 2.2812z"/>
  </symbol>
  <symbol id="p" overflow="visible">
   <path d="m2.7344-21.719h6.25l7.9062 14.891v-14.891h5.3125v21.719h-6.25l-7.9062-14.906v14.906h-5.3125z"/>
  </symbol>
  <symbol id="o" overflow="visible">
   <path d="m2.3281-6.3438v-9.9531h5.2344v1.625c0 0.88672-0.007812 1.9961-0.015625 3.3281-0.011719 1.3359-0.015625 2.2266-0.015625 2.6719 0 1.3125 0.03125 2.2617 0.09375 2.8438 0.070312 0.57422 0.19141 0.99219 0.35938 1.25 0.21875 0.33594 0.5 0.59375 0.84375 0.78125s0.73828 0.28125 1.1875 0.28125c1.082 0 1.9297-0.41406 2.5469-1.25 0.625-0.83203 0.9375-1.9922 0.9375-3.4844v-8.0469h5.2031v16.297h-5.2031v-2.3594c-0.78125 0.94922-1.6172 1.6523-2.5 2.1094-0.875 0.44531-1.8398 0.67188-2.8906 0.67188-1.8867 0-3.3242-0.57812-4.3125-1.7344-0.98047-1.1562-1.4688-2.832-1.4688-5.0312z"/>
  </symbol>
  <symbol id="n" overflow="visible">
   <path d="m2.7344-21.719h9.2969c2.7578 0 4.8789 0.61719 6.3594 1.8438 1.4766 1.2188 2.2188 2.9648 2.2188 5.2344 0 2.2812-0.74219 4.0391-2.2188 5.2656-1.4805 1.2305-3.6016 1.8438-6.3594 1.8438h-3.6875v7.5312h-5.6094zm5.6094 4.0625v6.0625h3.0938c1.082 0 1.9219-0.26562 2.5156-0.79688s0.89062-1.2812 0.89062-2.25-0.29688-1.7109-0.89062-2.2344c-0.59375-0.51953-1.4336-0.78125-2.5156-0.78125z"/>
  </symbol>
  <symbol id="m" overflow="visible">
   <path d="m2.5-16.297h5.2188v16c0 2.1875-0.52734 3.8516-1.5781 5-1.0547 1.1562-2.5742 1.7344-4.5625 1.7344h-2.5625v-3.4219h0.89062c0.98828 0 1.6641-0.22656 2.0312-0.67188 0.375-0.44922 0.5625-1.3281 0.5625-2.6406zm0-6.3438h5.2188v4.25h-5.2188z"/>
  </symbol>
  <symbol id="l" overflow="visible">
   <path d="m15.672-15.781v4.25c-0.71094-0.48828-1.4219-0.84766-2.1406-1.0781-0.71094-0.23828-1.4492-0.35938-2.2188-0.35938-1.4492 0-2.5781 0.42969-3.3906 1.2812-0.8125 0.84375-1.2188 2.0273-1.2188 3.5469 0 1.5312 0.40625 2.7266 1.2188 3.5781 0.8125 0.84375 1.9414 1.2656 3.3906 1.2656 0.82031 0 1.5977-0.11719 2.3281-0.35938 0.72656-0.25 1.4062-0.61328 2.0312-1.0938v4.2656c-0.8125 0.30469-1.6406 0.52344-2.4844 0.67188-0.83594 0.15625-1.6719 0.23438-2.5156 0.23438-2.9492 0-5.25-0.75391-6.9062-2.2656-1.6562-1.5078-2.4844-3.6094-2.4844-6.2969 0-2.6758 0.82812-4.7695 2.4844-6.2812 1.6562-1.5078 3.957-2.2656 6.9062-2.2656 0.84375 0 1.6797 0.078125 2.5156 0.23438 0.83203 0.14844 1.6602 0.37109 2.4844 0.67188z"/>
  </symbol>
 </defs>
 <g>
  <path d="m612.87 209.9c-3.293-8.7422-8.1367-16.816-14.301-23.832l-1.0703-1.3711c-4.9844-5.582-8.3438-12.422-9.7148-19.781-0.17578-5.0078 0.42969-10.012 1.7891-14.832 1.9297-6.3867 2.4375-13.121 1.4883-19.723-2.3828-11.32-11.262-17.875-19.008-23.832h0.003906c-0.75391-0.64844-1.5508-1.2461-2.3828-1.7891-8.4023-6.4961-14.738-15.293-18.234-25.32-1.2461-3.9141-2.2812-7.8906-3.0977-11.918-1.2891-8.2188-4.1641-16.109-8.4609-23.234-5.4219-7.6875-15.848-11.918-26.035-15.848-4.9258-1.7734-9.707-3.9258-14.301-6.4375-2.5898-1.6875-5.0586-3.5625-7.3867-5.6016-8.6133-7.9336-19.289-13.281-30.805-15.43-13.48-0.96875-27.031-0.085937-40.277 2.6211-2.0742-0.69141-4.207-1.1875-6.375-1.4883-23.016-2.8281-46.359 0.93359-67.324 10.844-15.953 5.7617-30.07 15.699-40.871 28.777-3.1875 4.2969-6 8.8633-8.4023 13.645-2.6094 5.5312-6.0469 10.633-10.188 15.133-1.8906 1.8711-3.8789 3.6406-5.9609 5.3008-4.9062 3.4336-9.1484 7.7344-12.512 12.691-2.9609 5.9766-4.1211 12.684-3.3359 19.305-3.625 3.3125-7.9688 5.7383-12.691 7.0898-7.8906 2.1953-14.816 6.9805-19.66 13.586-4.5938 7.4102-6.2148 16.289-4.5273 24.844 1.4688 6.9453 0.23438 14.191-3.457 20.258-3.957 4.5195-9.3008 7.5977-15.191 8.7578-11.402 2.2422-21.062 9.7617-26.039 20.258-4.207 9.3555-5.0703 19.875-2.4414 29.789 2.3555 7.8789 1.7852 16.344-1.6094 23.836-4.3516 8.2344-11.133 14.934-19.422 19.184-9.4766 4.793-16.797 12.984-20.496 22.938-4.5078 14.332-4.5078 29.699 0 44.031 3.0156 9.043 3.6133 18.719 1.7266 28.062-2.3789 6.9688-7.0664 12.918-13.285 16.859-9.0234 6.4141-15.797 15.504-19.363 25.98-5.125 15.191-2.2656 27.289 4.0508 41.707 2.4922 6.457 2.7383 13.566 0.69531 20.184-2.043 6.6172-6.2539 12.352-11.957 16.277-11.941 9.1484-18.625 23.582-17.875 38.609 0.83594 25.441 17.578 29.789 18.293 29.789h0.77344c1.5977-0.011718 2.9805-1.1211 3.3359-2.6797 0.19141-0.79297 0.0625-1.625-0.35547-2.3242-0.80469-3.1211-0.074219-6.4414 1.9648-8.9375 2.9062-3.2148 7.1133-4.9453 11.441-4.707 5.9062 0.33203 11.672 1.918 16.918 4.6484 6.6562 4 14.715 4.9336 22.105 2.5625 9.5938-2.9805 11.379-10.902 12.809-17.219 1.4297-6.3164 2.8008-11.082 9.0547-13.285l0.003906-0.003906c5.4766-1.0273 11.145-0.25391 16.145 2.207 8.5781 2.8594 18.23 5.957 28.66-1.3711 7.3867-5.3008 7.6875-13.406 7.8633-20.613 0.17969-7.2109 0.35938-14.18 7.0312-19.422v-0.003906c5.4883-4.5469 12.574-6.6953 19.66-5.957 7.0742 0.76172 14.152-1.3906 19.605-5.957 6.793-5.957 7.6875-15.312 8.5195-23.832 0.71484-7.2695 1.4297-14.18 5.6602-17.516v-0.003906c6.6328-4.5781 14.59-6.8438 22.641-6.4336 8.1641-0.41797 16.621-0.77344 23.414-7.8633 6.3672-7.1328 9.3242-16.676 8.1016-26.156-0.69922-6.957 0.73828-13.961 4.1133-20.082 4.3672-6.6367 10.582-11.855 17.875-15.012 9.1367-3.7383 16.727-10.484 21.508-19.125 8.8789-16.684-1.4297-35.75-10.484-52.789l-1.4336-2.6836c28.285 16.953 59.879 27.641 92.648 31.34 5.957 0.71484 11.023 1.1914 15.848 1.4297-3.9453 11.023-5.332 22.801-4.0508 34.438 2.1328 27.023 5.6914 53.91 10.668 80.555 0.31641 1.6172 1.7461 2.7734 3.3945 2.7422h0.65625c1.9141-0.36328 3.1836-2.1914 2.8594-4.1133 0 0-0.65625-3.457-1.6094-8.9375 32.828-1.3711 42.422-17.875 45.402-27.465 0.89453-3.2188 1.668-6.5547 2.3828-9.7695v-0.003907c1.0195-8.1523 4.1172-15.906 8.9961-22.52 3.9062-3.9258 8.4609-7.1523 13.465-9.5352 6.5898-3.1133 12.379-7.6992 16.922-13.402 4.582-7.5703 6.2539-16.551 4.707-25.266v-3.1562c-0.64062-11.309 1.5703-22.598 6.4336-32.828 1.668-3.5156 3.7539-7.0312 5.957-10.426 3.3945-5.3867 6.2461-11.094 8.5195-17.043 3.3008-10.211 3.2617-21.211-0.11719-31.398zm-227.12 117.79c-4.0664 7.332-10.523 13.051-18.293 16.207-8.4766 3.6836-15.684 9.7734-20.734 17.516-4.043 7.2539-5.8281 15.555-5.125 23.832 0 7.8633 0 14.777-5.957 21.152-4.8242 5.0625-11.203 5.4219-18.707 5.957-9.4922-0.4375-18.852 2.332-26.574 7.8633-6.6133 5.1836-7.4492 13.941-8.2812 22.344-0.83594 8.4023-1.4883 15.016-5.957 19.066-4.1445 3.5508-9.6055 5.1758-15.016 4.4688-8.6367-0.67969-17.195 2.0586-23.832 7.625-9.1758 7.3281-9.4141 16.98-9.7109 24.668s-0.47656 11.918-4.9453 15.191c-7.5078 5.4805-14.301 3.0977-22.223 0.41797-6.4492-3.1094-13.777-3.8867-20.734-2.2031-3.8633 1.3164-7.2656 3.7109-9.8086 6.8984-2.543 3.1875-4.125 7.0391-4.5508 11.094-1.4297 6.5547-2.6211 10.309-7.9844 11.918v-0.003907c-5.7695 1.8008-12.035 0.99609-17.16-2.2031-6.0625-3.0938-12.691-4.918-19.484-5.3633-6.5391-0.29297-12.863 2.3789-17.219 7.2695-2.1289 2.5234-3.418 5.6484-3.6914 8.9375-5.4258-5.2344-8.3555-12.543-8.043-20.078-0.71484-12.75 4.9023-25.031 15.012-32.828 6.957-4.8828 12.062-11.965 14.492-20.105 2.4336-8.1406 2.0508-16.863-1.0859-24.762-5.957-13.348-8.3398-23.832-3.8711-36.762 3.2148-9.2148 9.2383-17.195 17.219-22.816 7.3242-4.9453 12.777-12.203 15.488-20.617 2.3203-10.512 1.7891-21.457-1.5469-31.695-4.1719-13.062-4.1719-27.098 0-40.156 3.2031-8.5273 9.6172-15.457 17.875-19.305 9.3555-4.9531 16.996-12.617 21.926-21.988 3.8906-8.7812 4.5664-18.652 1.9062-27.883-2.418-8.5547-1.7422-17.688 1.9062-25.797 5.3008-11.141 13.227-13.703 21.629-16.504 7.3477-1.5156 13.953-5.5117 18.707-11.32 4.6641-7.4062 6.3242-16.316 4.6484-24.906-1.4805-6.9375-0.26953-14.18 3.3945-20.258 4.0352-5.418 9.793-9.3047 16.324-11.023 4.043-1.2617 7.875-3.1094 11.383-5.4805v0.53516c0.71484 3.0391 1.4883 5.957 2.2656 8.9961l-0.003906 0.003906c1.5195 5.3203 2.5742 10.762 3.1602 16.266 0.15234 1.8008 1.6445 3.1914 3.4531 3.2148 0.92969-0.074219 1.7891-0.51953 2.3828-1.2383 0.59766-0.71875 0.875-1.6484 0.77734-2.5742-0.64453-5.9336-1.8203-11.797-3.5156-17.516-0.71484-2.7422-1.5508-5.957-2.0859-8.5781v-0.003906c-2.2773-7.6992-1.8125-15.953 1.3086-23.355 3.0195-4.043 6.6602-7.582 10.785-10.484 2.5625-2.0273 5.0039-4.1094 6.8516-5.957 4.5859-4.9883 8.4023-10.629 11.32-16.742 2.2266-4.4141 4.8398-8.6211 7.8047-12.574 10.113-12.285 23.379-21.594 38.371-26.93 19.816-9.3594 41.863-12.973 63.633-10.426 2.0352 0.26953 4.0352 0.76953 5.957 1.4883 6.4688 2.9805 11.875 7.8672 15.492 14.004 3.6094 5.1133 6.8008 10.512 9.5312 16.145-6.8516 0.79297-13.422 3.1797-19.184 6.9727-11.918 7.9258-14.895 21.629-17.102 33.781-1.7266 9.832-3.6953 20.973-10.844 27.703-2.3477 2.082-4.9023 3.918-7.625 5.4844-2.4727 1.4883-4.8594 3.1211-7.1484 4.8828-7.2852 6.0859-11.816 14.848-12.574 24.309-0.17188 6.1641 0.50781 12.32 2.0273 18.293 2.332 7.3398 2.5391 15.188 0.59766 22.641-2.1875 4.75-5.2617 9.0352-9.0586 12.633-4.8672 4.6133-8.6172 10.277-10.961 16.562-3.5742 11.918 1.4297 22.344 6.3164 32.473h-0.003906c3.4336 6.0039 5.7344 12.586 6.793 19.422 0.53516 7.3008-1.7969 14.523-6.4922 20.137-1.9453 2.1484-4.0586 4.1406-6.3164 5.9609-1.4297 1.1914-2.8594 2.5039-4.2891 3.8125-4.2695 3.75-7.1445 8.8281-8.1641 14.418-0.24609 1.9062 1.0781 3.6562 2.9805 3.9336h0.47656c1.7461 0.042969 3.2422-1.2461 3.4531-2.9805 0.84375-4.1133 3.0742-7.8164 6.3164-10.484 1.25-1.25 2.6211-2.3828 4.0508-3.6328v-0.003906c2.4805-2.0117 4.832-4.1797 7.0312-6.4922 3.6055-4.1445 6.125-9.1211 7.3281-14.48 0.95312 1.8477 1.9062 3.6953 2.9805 5.5391 8.5781 16.207 17.516 32.832 10.547 46.477zm87.641-28.004c-61.246-7.7461-97.594-35.391-100.75-37.535-1.4492-6.6133-3.8164-12.992-7.0312-18.949-4.4688-9.1758-8.7578-17.875-5.957-27.289v0.003906c1.9961-5.2773 5.1992-10.012 9.3555-13.824 4.5625-4.3242 8.2305-9.5078 10.781-15.254 2.5195-8.6758 2.5195-17.895 0-26.57-1.4219-5.2812-2.0859-10.738-1.9648-16.207 0.58203-7.5898 4.2148-14.617 10.07-19.484 1.9961-1.5977 4.1094-3.0508 6.3125-4.3477 3.1484-1.8203 6.1055-3.957 8.8203-6.375 8.8164-8.3398 11.082-21.211 12.93-31.52 1.9648-11.262 4.707-22.82 14.121-29.254 6.1016-3.8828 13.145-6.043 20.375-6.2539h9.7695c18.461 1.1641 35.656 9.7656 47.668 23.832 9.9883 9.707 17.664 21.539 22.461 34.613-1.9414-0.53906-3.9453-0.79688-5.957-0.77344h-1.3125c-9.125 1.1562-17.781 4.7109-25.082 10.309-2.5234 1.9609-3.0469 5.5625-1.1914 8.1641 1.0039 1.2969 2.5312 2.082 4.168 2.1445h0.30078c1.3477-0.027344 2.6523-0.50781 3.6914-1.3711 5.3984-5.0547 11.973-8.6797 19.125-10.547 0.73438-0.054687 1.4727-0.054687 2.207 0 1.6055 0.003906 3.207 0.20703 4.7656 0.59766 0.73047 0.13672 1.4453 0.33594 2.1445 0.59375 0.63281 2.293 1.1328 4.6211 1.4883 6.9727 2.9805 20.613 3.1562 21.508 6.375 30.207 1.0742 2.9805 2.6211 7.0312 4.7656 13.523h0.003906c6.4844 18.23 8.2852 37.793 5.2422 56.902-1.5742 16.488-5.5898 32.652-11.918 47.961-0.87891 2.1602-1.6328 4.3672-2.2617 6.6133-4.4102 14-9.2344 29.852-63.516 23.117zm132.81-60.711c-2.1445 5.5-4.8398 10.77-8.0469 15.727-2.0273 3.457-4.2305 7.2109-5.957 11.082-5.3438 11.297-7.7969 23.746-7.1484 36.227v3.2188c1.3516 7.1523 0.082031 14.555-3.5742 20.852-3.9375 4.8008-8.9062 8.6523-14.539 11.262-5.668 2.7344-10.812 6.4453-15.191 10.961-5.6484 7.5-9.2773 16.32-10.547 25.621-0.65625 3.1562-1.3711 6.3164-2.2656 9.293-2.3828 8.043-10.723 21.566-39.859 22.582-2.7422-16.98-6.7344-44.09-7.6875-63.691-1.1914-23.832 3.6328-32.172 5.0625-33.902 38.07 0 43.195-16.863 47.008-29.789 0.65625-2.1445 1.3125-4.1719 2.0859-5.957h0.003907c6.5273-15.918 10.723-32.695 12.453-49.812 3.0156-20.02 1.0938-40.473-5.6016-59.578-2.2656-6.6133-3.6953-10.723-4.8867-13.762-2.918-8.1641-3.0391-8.2812-5.957-28.836v-0.003906c-3.2852-20.781-13.262-39.922-28.418-54.516-13.23-15.555-32.281-24.973-52.672-26.039h-7.9805c-3.3008-6.9062-7.1484-13.543-11.5-19.84-2.8125-4.1875-6.1367-8.0117-9.8906-11.379 9.625-1.6094 19.422-1.9492 29.133-1.0117 10.324 1.8594 19.875 6.707 27.469 13.941 2.6055 2.1641 5.3555 4.1523 8.2227 5.957 4.9727 2.6406 10.109 4.9688 15.371 6.9727 9.1758 3.5742 18.648 7.3281 22.82 13.285 3.7852 6.3633 6.2969 13.406 7.3867 20.734 0.89453 4.3047 2.0117 8.5586 3.3359 12.75 3.8516 11.352 11.035 21.277 20.617 28.48l2.4414 1.9648c7.4492 5.4805 14.539 10.844 16.383 19.543h0.003907c0.66797 5.625 0.16016 11.324-1.4922 16.742-1.625 5.5234-2.2695 11.293-1.9062 17.039 1.457 8.6523 5.2695 16.734 11.023 23.355l1.1914 1.4883v0.003906c5.6562 6.4805 10.098 13.926 13.109 21.984 2.8906 8.7852 2.8906 18.266 0 27.051z"/>
  <path d="m460.34 130.6c-0.80469 1.8125-2.457 3.1094-4.4102 3.457-0.39453 0.058594-0.79688 0.058594-1.1914 0-1.4531-0.015625-2.8906-0.32031-4.2305-0.89453-7.8633-3.4102-16.199-5.6016-24.727-6.4961h-0.71484c-2.7656 0.15234-5.4961 0.71484-8.1016 1.668-0.71484 0.29687-4.707 2.0859-5.957 2.6211-2.1445 1.25-9.5312 5.957-14.715 9.293l-0.003906 0.003906c-0.26953 0.085938-0.5625 0.085938-0.83203 0-0.5625 0.003906-1.0781-0.32422-1.3125-0.83594-0.32031-0.46484-0.32031-1.082 0-1.5469 3.7031-4.3477 7.6836-8.4453 11.918-12.273l0.95312-0.77344v-0.003907c4.9023-4.0469 10.852-6.6289 17.16-7.4453 1.7891 0 3.8711-0.29688 5.957-0.29688 9.1602-0.003906 18.238 1.7344 26.75 5.1211 1.6641 0.53906 3.0078 1.7852 3.6719 3.4023 0.66797 1.6172 0.58594 3.4453-0.21484 5z"/>
  <path d="m539.77 235.58c0 0.77344-1.0117 18.648-30.266 23.832h-0.003906c-2.5352 0.44922-5.1094 0.66797-7.6836 0.65625-10.402-0.097656-20.492-3.5469-28.777-9.832-0.58984-0.46875-0.80469-1.2617-0.53516-1.9648 2.0352-5.1016 5.0508-9.7578 8.875-13.703 4.7812-4.2305 10.848-6.7266 17.219-7.0898 0.92969-0.12109 1.8711-0.12109 2.8008 0 3.4766 0.57812 7.0391-0.25781 9.8906-2.3242 4.832-2.9531 10.777-3.4375 16.027-1.3125 5.3125 1.9961 9.7031 5.875 12.332 10.906 0.09375 0.26562 0.13672 0.55078 0.12109 0.83203z"/>
  <use x="84.804688" y="649.371094" xlink:href="#u"/>
  <use x="106.667969" y="649.371094" xlink:href="#c"/>
  <use x="121.359375" y="649.371094" xlink:href="#a"/>
  <use x="141.566406" y="649.371094" xlink:href="#k"/>
  <use x="161.667969" y="649.371094" xlink:href="#b"/>
  <use x="175.90625" y="649.371094" xlink:href="#a"/>
  <use x="196.113281" y="649.371094" xlink:href="#j"/>
  <use x="227.808594" y="649.371094" xlink:href="#i"/>
  <use x="249.132812" y="649.371094" xlink:href="#e"/>
  <use x="278.921875" y="649.371094" xlink:href="#h"/>
  <use x="301.980469" y="649.371094" xlink:href="#t"/>
  <use x="319.710938" y="649.371094" xlink:href="#g"/>
  <use x="340.917969" y="649.371094" xlink:href="#s"/>
  <use x="351.128906" y="649.371094" xlink:href="#e"/>
  <use x="370.550781" y="649.371094" xlink:href="#f"/>
  <use x="391.757812" y="649.371094" xlink:href="#a"/>
  <use x="84.804688" y="679.160156" xlink:href="#r"/>
  <use x="97.765625" y="679.160156" xlink:href="#c"/>
  <use x="112.457031" y="679.160156" xlink:href="#d"/>
  <use x="132.925781" y="679.160156" xlink:href="#q"/>
  <use x="174.335938" y="679.160156" xlink:href="#b"/>
  <use x="188.578125" y="679.160156" xlink:href="#g"/>
  <use x="209.785156" y="679.160156" xlink:href="#a"/>
  <use x="240.363281" y="679.160156" xlink:href="#p"/>
  <use x="265.292969" y="679.160156" xlink:href="#d"/>
  <use x="285.761719" y="679.160156" xlink:href="#o"/>
  <use x="306.96875" y="679.160156" xlink:href="#f"/>
  <use x="338.546875" y="679.160156" xlink:href="#n"/>
  <use x="360.382812" y="679.160156" xlink:href="#c"/>
  <use x="375.074219" y="679.160156" xlink:href="#d"/>
  <use x="395.539062" y="679.160156" xlink:href="#m"/>
  <use x="405.75" y="679.160156" xlink:href="#a"/>
  <use x="425.957031" y="679.160156" xlink:href="#l"/>
  <use x="443.613281" y="679.160156" xlink:href="#b"/>
 </g>
</svg>
