<svg id="Layer_1" data-name="Layer 1" xmlns="http://www.w3.org/2000/svg" viewBox="0 0 1000 1000"><g id="YBFuBr.tif"><path d="M281.32,376.08c-10.24,6.59-20.26,11-31.15,13.23-3.48.71-4.44,2.68-4.41,6q.33,33.45.39,66.9c0,4.3,2,7.19,5.26,9.68,1.92,1.49,4.72,2,5.84,5.59-6.84-.73-13.25-1.6-19.68-2.06-15.65-1.14-31.32-1.78-47-1.57-1.4,0-3.36.61-3.9-1.38s1-2.67,2.53-3.25c12.93-5.09,15.68-15.64,15.49-28-.2-13.58-.31-27.18.14-40.75.17-5.33-1.84-7.77-6.51-9.61-14.84-5.85-28.1-13.51-34.92-29.26-2.44-5.63-1.31-7.73,4.22-9,6.72-1.52,13.33-3.57,21.21-3.47-3.26,5.07-8.23,6.58-12.44,8.73-5.95,3-4.67,5.36-.24,8.36a160.41,160.41,0,0,0,20.05,11.39c7.77,3.75,8.18,3.65,8-4.7-.34-17.68-.89-35.36-1.42-53-.37-12.3-1.14-24.59-1.2-36.89,0-9.39-1.77-17.42-11.94-20.55.64-3.07,2.52-3.2,4.24-3,16.72,1.6,33.39-.84,50.09-.6,1.95,0,4.56-1,5.75.85,1.46,2.33-1.29,3.46-2.56,4.89-3.31,3.73-4,8.31-3.9,12.95.56,29.72,1.38,59.44,1.83,89.16.11,7.67,2.89,7.36,8.63,4.58,27.44-13.3,28.77-15,27.75-45-.73-21.51-2.11-43-2.66-64.51-.16-6.37-4.12-9.9-8-14.34,19.07,1.73,37.57.37,58.05-1.33-15,18-9.94,38-10.78,57.11-.47,10.48.53,21,.1,31.51-.25,6.21,2.35,6.44,7.17,5.52,14.45-2.77,29-3.91,44.86-1.33-4.61,4.13-8.41,7.62-12.32,11-2.56,2.2-3.08,4.58-2.83,8.08,1,13.67,5.16,26.58,8.91,39.58.54,1.88,0,5.66,3,5.3a7.11,7.11,0,0,0,5.8-5.51,54.82,54.82,0,0,0,.82-8.41,535.1,535.1,0,0,0-1.7-83.68c-.51-5-2-6.41-6.54-3.72a103.44,103.44,0,0,1-10.9,5.69c-5.87,2.57-8.85,6.62-8.16,13.21.19,1.85,1,4.6-1.65,5.28-2.08.53-2.78-2-3.66-3.4-4.54-7.42-9.09-14.83-11.85-23.19-1-3.09-.94-5.16,2-7.19,8.9-6.1,17.89-12,27.68-16.62,4.53-2.16,7.49-1.39,10.72,2.2,6.36,7.05,12.68,14.22,19.72,20.55,11.39,10.23,15.35,22.89,15.5,37.73.17,15.9-.29,31.77-1,47.64-.29,6.79-.22,12.55,11.65,10.44-10.27,9.08-18.34,16.78-26,24.91-5.89,6.25-13.94,3.2-16.72-5.46-1.14-3.51-2.35-3.29-4.74-1.42-3.43,2.69-6.91,5.33-10.49,7.83-7.72,5.39-15.34,3.11-18.25-5.57C335.14,401.75,331.54,389.2,327,377c-3.08-8.38-1-14.91,4.83-20.93,2.28-2.35,4.48-4.78,7.43-7.95-7.25-.61-12.69,1.94-18.23,4.07-2.1.81-2.38,2.45-2.36,4.33.46,37.92-1.1,75.86,1.36,113.75.53,8.2,3,15.63,10.58,20.27,1.41.87,2.67,1.89,1.83,3.63s-2.7,1.32-4.11,1.06c-19.08-3.6-38.34-3.48-57.63-2.86-1.87.06-3.62-.12-4.34-2.29s.64-3.25,2.28-4.23c9.79-5.83,12-15.66,12.87-25.73A475.61,475.61,0,0,0,281.32,376.08Z"/><path d="M398.83,561.57c1.33,24.07,2.67,48.15,4.13,74.57-6.55-7.29-8-15-13.69-22.41v85.62c-7-5.55-7.73-13-13-18.94-2.13,27.11-4.17,53-6.2,78.8l-2.16.16L346.15,627.88l1.4-1.06,7,9.52,2.05-1.41c.26-11.36-2.23-22.52-3.71-33.72-1.87-14.18-4.6-28.26-6.85-42.4-.37-2.36-1.8-5.41.64-7,2-1.32,4.34.86,6.4,1.78,2.3,1,4.46,2.38,8.29,4.46-1.46-12.75-2.65-24.22-4.1-35.66C354,496.25,350.62,470.12,347,444c-.69-5,.29-6.65,5.69-6.42,13.09.56,26.21.77,39.3.47,5.62-.13,6.2,2.11,6,6.77-.45,11.14-.3,11,10.34,7.39,21.83-7.35,14.85-9.1,29.48,7.74,7.4,8.52,14.33,17.43,21.51,26.14a20.37,20.37,0,0,1,5,15.58c-1.64,17.32-2.87,34.69-4.54,52-.47,4.94.05,8.17,5.78,9.52,3.86.91,6.07.27,7.1-3.34,1.62-5.65,5.81-8.71,10.53-11.59,8.55-5.2,17.2-10.15,26.18-14.6,6.94-3.45,12.91-2.86,19.4,1.41,14.28,9.41,24.65,20.07,25.75,39,1.3,22.2,5.16,44.2,1.11,66.49A24,24,0,0,1,547,655.57a79.74,79.74,0,0,1-30.79,15.16,15.63,15.63,0,0,1-14.4-3.45c-6.91-5.73-13.83-11.47-20.93-17-8.43-6.51-11.72-15.17-11.67-25.5q.11-23.05,0-46.12c0-2.93.92-6.37-3.46-7.43-3.79-.91-7.2-3.65-11.34,0-8.73,7.6-19.54,11-30.56,13.73-4.88,1.2-8.72.57-11.4-4.74-3.32-6.6-7.64-12.71-11.53-19Zm-1-53.41H398c0,12,.25,24.07-.12,36.09-.16,5.45,2.07,6.66,6.79,5.79,5.05-.93,10.13-2.14,15.27-1.42,5.46.77,6.27-1.82,6.28-6.5a588.7,588.7,0,0,0-3.42-64.35c-1.86-17.18-1.68-17-19-12.77-4.78,1.16-6.13,3.23-6,7.83C398,484.6,397.86,496.38,397.86,508.16ZM526.13,617.93c.73-15.29-1.92-29.93-3.38-44.65-.16-1.69-.75-4.37-1.81-4.75-6-2.16-11.33.81-16.84,2.84-4,1.46-4.43,4-4.47,7.63-.24,23.29,1.52,46.47,3.18,69.66.38,5.27,3.39,9.09,7.62,10.52s8.54-1.75,11.52-4.77c1.72-1.74,2.14-5.12,2.45-7.84C525.52,636.93,526.73,627.28,526.13,617.93Zm-26.65-54.18c15.14-5.33,20.91-11.75,19.23-22.73C512.89,549.76,498.69,549.1,499.48,563.75Zm-91.77-6.19L406.62,559c3,3.36,6,6.79,9.14,10.08,1.13,1.19,2.45,3.44,4.35,1.75,2.46-2.18,5.06-4.68,5.57-8,.43-2.84-2.63-2.83-4.38-3.19C416.82,558.66,412.24,558.2,407.71,557.56Z"/><path d="M795.23,525.84c6.54-3.94,12.36-7.1,17.79-10.82,4-2.7,6.39-2,8.74,1.9,5.2,8.52,10.38,17,14.5,26.16,2.65,5.89,2.18,10.78-3.21,14.94-8.11,6.27-16.08,12.74-24.17,19-1.26,1-2.64,2.91-4.55.84a2.7,2.7,0,0,1,.33-4.1c7-6,4.05-12.73,1.65-19.49-1.37-3.85-2.46-7.79-3.83-11.64-.67-1.89-.1-5.4-3.71-4.33-2.39.71-4.63,2.37-4.24,5.61.12,1,0,2,.07,3.07,1.38,36.84,3,73.68,4,110.53.25,9.12,4.37,14.19,12.27,17.35a65.47,65.47,0,0,0,16.23,4.45c1.86.23,3.9.51,3.44,3-.38,2.08-2.44,1.38-3.84,1.43-15.72.59-31.29-.31-46.46-4.93-9.56-2.92-19.11-5.92-29.28-5.79-1.62,0-3.32-.13-3.6-2-.31-2.1,1.76-2,3-2.69,8.6-4.57,13.36-11.52,13.64-21.47.92-32.78-.52-65.55-.45-98.32,0-3.44-.82-5.19-4.72-5-6.48.29-3.83-3.58-1.77-5.47,10.39-9.53,21-18.79,31.68-28,2.84-2.46,4.18-.27,4.63,2.29C794.12,516.35,794.52,520.42,795.23,525.84Z"/><path d="M653.61,483.39c2.57,13.23,2,26.31,2.35,39.27.22,7.51,3,10,10.07,8.71A42,42,0,0,1,673,531c3,0,6.4-.65,6.12,4.36-.22,4.06,0,7-6,7.25-16,.58-16.14,1-15.93,16.84q.81,58.43,1.95,116.84c.08,4-1.23,9.13,2.48,11.54,6.17,4,12.84,8.25,19.85,9.68,5,1,8.62-5.39,12.89-9-3.44-3.92-8.18-3.09-12.1-4.29s-8-1-11.7-3.11c.85-2.81,3.05-1.77,4.51-1.71,11,.43,22.07,1,33.11,1.61,1.52.08,3.27-.05,4.11,1.52,1.13,2.13-.75,3.22-1.93,4.48q-8.67,9.27-17.36,18.51c-2.07,2.21-4.35,3.48-7.53,2.4-17-5.76-34.12-11.09-50.05-19.59-6.34-3.37-9.07-7.79-9-15.23.14-39.21-.25-78.43-.36-117.64,0-7.14.63-13.63-10.34-12.75-6.63.53-4.22-4-1.44-6.83a186.81,186.81,0,0,0,34.81-48.52C649.84,485.74,650.53,484,653.61,483.39Z"/><path d="M525.93,322.8c15.64-3.43,31.25-1.71,47.65-2.93-11.5,4.66-7.38,12.29-5.18,19.76,2.73,9.25,5.08,18.61,8.13,29.94,10.42-18,21.26-33.42,26.23-51.88.67-2.47.48-2.52-7-7.42,11.35-2.28,21.73,1.67,32.71.58-.74,5.07-3.58,8.75-5.6,12.63-23,44.06-45.77,88.19-75.23,128.48-3.51,4.8-7.13,7-13.27,6.67a204.46,204.46,0,0,1-74.44-17.37c-6.8-3-7-6.28-2.61-11.27,2.7-3.08,5.42-6.15,8-9.36,2.83-3.56,6.13-4.6,10.77-3.93,6.71,1,13.61.6,21.16,2.74-5.09,3.23-10.26,3.83-15.05,4.91s-6.76,3.65-8.19,7.91c-1.12,3.35-.34,4.71,2.89,5.4a203,203,0,0,0,53.61,3.77c3.08-.16,4.35-2.26,5.73-4.46,6-9.54,12-19.11,18.14-28.54a8.42,8.42,0,0,0,1.08-7.83c-6.81-23-13.85-46-21.67-68.7C532.32,327.85,530.67,324.33,525.93,322.8Z"/><path d="M568.24,635.11c1-32.53,5.47-65,2.75-97.56-1.08-13-.59-12.88-13.89-13.37-3.83-.15-9.79,2.17-11.11-1.89-1.51-4.64,4.94-5.53,8.07-7.67a175.42,175.42,0,0,0,40.72-38.4c1.42-1.85,2.57-5.36,5.64-4,2.35,1,1.07,4.14,1.14,6.3.24,7.43.26,14.87.39,22.3.2,10.36.21,10.61,10.58,10.48,4.68,0,6.88,1.18,7.51,6.12.77,6-.95,8.86-7.23,7.7C604.19,523.5,602,527.52,602,535.5c.08,30.75,0,61.51-1.9,92.24-.78,12.78-.51,25.66-1.81,38.39-1,9.53,2.7,15.58,10.34,20.37,1.79,1.12,5.88,1.83,3.94,5.18s-5,1-7.41-.22c-8.92-4.52-17.75-9.22-26.69-13.7-7.52-3.77-10.72-9.67-10.34-18.06C568.53,651.52,568.24,643.31,568.24,635.11Z"/><path d="M449,275.88c4.74-2.84,8.76-5.47,13-7.7,5.12-2.71,9.52-1.93,12.12,3.71a274.64,274.64,0,0,1,11.54,28.41c1.47,4.45.52,7.41-3.34,9.75-6.58,4-13.14,8-19.72,12-1.52.92-3.18,2.24-4.78.42-1.79-2,.55-3.06,1.4-4.46.63-1.06,1.71-2.35,1.51-3.31a172.65,172.65,0,0,0-8.44-28.92c-3.44,1.06-2.59,3.17-2.6,4.76-.08,34.12,2.81,68.07,6,102,.65,6.9.85,6.88,8.86,14.6h-29.1c-6.68,0-13.37,0-20.06-.05-1.42,0-3.46.36-3.63-1.69a3.83,3.83,0,0,1,1.88-3c8.32-3.41,7.53-10.44,7.46-17.42-.31-30.25-.4-60.49-.72-90.74-.12-11.18-.32-11.17-11.57-11-2.3,0-4.61,0-6.91-.13-.37,0-.73-.57-2.05-1.68,9.45-6.68,18.76-12.8,27.56-19.58,15.61-12,20.37-9.08,20.93,9.78A41.62,41.62,0,0,0,449,275.88Z"/><path d="M706.5,609.36c.59,10.28,1,18.21,1.5,26.14.42,7.08,4,12.54,9.07,17.17,3,2.74,4.95,2.61,6.72-1.56,4.12-9.72,6.5-19.9,8.94-30.09.34-1.41-.25-3.45,1.61-3.95,2.17-.58,2.84,1.69,4.07,2.86a7.11,7.11,0,0,1,.46.62c8.92,11.64,8.92,11.64,0,23.15-2.35,3-4.73,6.06-7,9.15-8.62,11.6-19.86,13.15-31.44,4.34-8.83-6.72-16.26-14.89-24-22.79a6.48,6.48,0,0,1-2-6.24c2.35-10.67,1.49-21.49.78-32.16-.93-14.18.75-28.09,2.15-42.08a10.49,10.49,0,0,1,4.44-7.65c8.69-6.81,17.34-13.65,25.9-20.62,4-3.28,8.33-4,12.9-1.74,7.82,3.83,15.51,7.93,23.3,11.83,2.59,1.29,3.38,3.69,4.28,6.08l7.8,20.82a22.39,22.39,0,0,1-7,25.67c-2.24,1.8-4.11,1.21-6.41.63-9.19-2.32-18.41-4.51-27.63-6.69-6-1.43-9.11.16-8.59,7.18C706.93,596.82,706.5,604.28,706.5,609.36Zm1.2-52.84c-1.16,15.38-1.16,15.37,14.49,16.81,1.54.14,3.06.39,4.58.67,4.37.82,4.83-.76,3.27-4.53-4.4-10.63-8.48-21.39-12.79-32.06-.71-1.75-1-4.47-3.71-4.19s-3.33,2.74-4,5C707.71,544.22,708.15,550.41,707.7,556.52Z"/><path d="M531,396.35c-17.87-2-35.39,3.34-53.4-1.48,17.56-10.17,14.13-27.21,14.77-42.24,1-24.8.57-49.65.89-74.48.05-4.18.14-7.68-4-5.91,8.68-9.52,17.79-20.08,27.61-29.93,3-3,6.89-2.12,7,3.56.07,5.11.24,10.23.29,15.35,0,3.9,1.15,5.41,4.91,2.71,3.32-2.39,6.79-4.58,10.21-6.84,4.2-2.78,7.53-2.34,10.16,2.34a185.24,185.24,0,0,1,12.18,26.42c1.45,3.89.48,6.31-2.81,8.38-6.94,4.37-13.79,8.88-20.76,13.19-1.8,1.11-3.86,3.3-6.08.74-2-2.35.44-3.74,1.65-5.09a6.08,6.08,0,0,0,1.39-6.35q-2.44-8.07-4.78-16.16c-.57-2-1.56-3.26-3.8-2.71a3.05,3.05,0,0,0-2.52,3.33c0,1.79,0,3.59,0,5.38,0,30.2.19,60.41.12,90.61C523.92,384.28,523.78,391.19,531,396.35Z"/></g></svg>