<?xml version="1.0" encoding="UTF-8"?>
<svg id="Layer_1" data-name="Layer 1" xmlns="http://www.w3.org/2000/svg" viewBox="0 0 64.27 64.27">
  <defs>
    <style>
      .cls-1 {
        fill: #f2f2f2;
      }
    </style>
  </defs>
  <rect width="64.27" height="64.27"/>
  <path class="cls-1" d="m30.18,4.73c4.87.19,17.38-.19,21.55.13,3.91.32,6.09,3.4,6.09,6.86s.64,12.25.64,16.36c0,4.49-.32,8.53-.32,17.96,0,3.53-2.24,7.05-5.45,7.05-1.6,0-3.85.19-5.13.19-2.25,0-1.67.83-2.89,3.34-1.15,2.37-1.54,2.95-3.27,2.95-1.35,0-3.01-.19-4.3-.19-2.56,0-4.87.19-11.48.19-4.94,0-5.39-.51-6.29-3.59-.64-2.24-1.6-2.69-3.21-2.69s-3.4-.19-4.81-.19c-3.21,0-6.09-3.53-6.09-6.73,0-9.94-.45-14.3-.45-17.32,0-2.63.38-8.02.45-16.55.06-5.19,3.01-7.5,5.32-7.5,2.18,0,15.07-.45,19.63-.26h.01Zm9.16,18.27c0-1.78,0-3.56-5.35-3.56h-3.56c-3.57,0-5.35,1.19-5.35,3.56v8.91c0,1.78,0,3.56,5.35,3.56h3.56c3.57,0,5.35-1.19,5.35-3.56v-8.91Z"/>
</svg>