<?xml version="1.0" encoding="UTF-8"?>
<svg id="Layer_1" data-name="Layer 1" xmlns="http://www.w3.org/2000/svg" viewBox="0 0 230.4 64.27">
  <defs>
    <style>
      .cls-1 {
        fill: #f2f2f2;
      }
    </style>
  </defs>
  <path class="cls-1" d="m25.4,9.44c4.87.19,17.38-.19,21.55.13,3.91.32,6.09,3.4,6.09,6.86s.64,12.25.64,16.36c0,4.49-.32,8.53-.32,17.96,0,3.53-2.24,7.05-5.45,7.05-1.6,0-3.85.19-5.13.19-2.25,0-1.67.83-2.89,3.34-1.15,2.37-1.54,2.95-3.27,2.95-1.35,0-3.01-.19-4.3-.19-2.56,0-4.87.19-11.48.19-4.94,0-5.39-.51-6.29-3.59-.64-2.24-1.6-2.69-3.21-2.69s-3.4-.19-4.81-.19c-3.21,0-6.09-3.53-6.09-6.73,0-9.94-.45-14.3-.45-17.32,0-2.63.38-8.02.45-16.55.06-5.19,3.01-7.5,5.32-7.5,2.18,0,15.07-.45,19.63-.26Zm9.16,18.27c0-1.78,0-3.56-5.35-3.56h-3.56q-5.35,0-5.35,3.56v8.91c0,1.78,0,3.56,5.35,3.56h3.56q5.35,0,5.35-3.56v-8.91Z"/>
  <path class="cls-1" d="m61.7,9.63c1.92-.06,5.77.19,7.63.06,1.92-.19,3.01,1.92,2.95,3.21-.13,2.24-.13,7.7,0,11.22.13,4.23-.51,12.76-.13,15.14.19,1.22.45,1.54,1.73,1.54s1.6-.13,1.28-2.76c-.13-.83.32-7.82,0-11.35-.38-3.91-.45-10.9-.32-13.79.13-2.24,1.22-3.08,3.98-3.33,1.48-.13,5,.32,6.61.13,3.53-.45,4.36,2.24,4.81,6.41.26,2.5-.13,17.32-.13,19.24s.45,10.71.32,15.33c-.13,5.77-3.4,6.86-6.28,7.25-2.63.26-7.76-.13-11.22.06-1.6.13-6.73-.32-10.58-.26-4.1.06-5.84-5.07-5.71-7.31.13-2.05-.19-15.07,0-18.21.19-2.95.13-14.82.06-16.93-.13-3.98,1.8-5.45,5-5.58v-.06Z"/>
  <path class="cls-1" d="m100.96,9.69c1.6-.32,3.53-.13,5.45,0,2.89.19,2.89,1.54,3.08,3.85.19,2.57.13,11.22.45,15.39.32,4.17.45,23.92.32,26.1-.13,2.18-1.35,2.57-3.59,2.82-3.14.32-4.49-.26-6.03-.06-1.22.13-3.4.19-4.49.13-2.89-.19-3.21-2.69-3.34-6.22-.13-3.27-.26-15.71-.13-19.82.13-4.23.13-13.47.06-17.7-.06-3.59.83-4.23,4.04-4.49,1.6-.13,2.95.26,4.17,0Z"/>
  <path class="cls-1" d="m124.69,9.5c.96,0,2.37.19,5.77.19,2.24,0,3.72,1.92,3.72,3.21,0,1.6.77,5.71.77,7.38,0,.96-.13,4.04-.64,5.45-.77,2.05-1.28,4.81-1.6,6.41-.64,3.21-.64,2.89-1.28,5.13-.38,1.28-.64,2.37-.64,2.89,0,.64.32.96.64.96.64,0,.64-.32,1.28-.32.96,0,1.6.7,1.6,2.24,0,1.28.32,3.85.32,5.77,0,1.54-.26,5.26-.26,6.61s-1.67,2.44-3.59,2.44c-5.07,0-7.18.19-8.66.19-1.35,0-6.09-.19-7.38-.26-1.48-.06-2.57-1.28-2.57-2.57.06-2.63-.32-7.37-.32-8.66,0-1.6.13-4.49.96-7.05,1.28-3.85,1.54-6.35,2.25-8.98.32-1.22.64-1.92.64-2.57s-.32-1.28-.96-1.28-.71.32-1.28.32c-1.15,0-1.92-1.03-1.92-2.89s.32-4.62.32-5.77,0-2.89.32-5.45c.39-3.21,2.37-3.21,4.81-3.21,1.48,0,5.45-.19,7.7-.19Z"/>
  <path class="cls-1" d="m148.74,9.5c.96,0,2.37.19,5.77.19,2.24,0,3.72,1.92,3.72,3.21,0,1.6.77,5.71.77,7.38,0,.96-.13,4.04-.64,5.45-.77,2.05-1.28,4.81-1.6,6.41-.64,3.21-.64,2.89-1.28,5.13-.38,1.28-.64,2.37-.64,2.89,0,.64.32.96.64.96.64,0,.64-.32,1.28-.32.96,0,1.6.7,1.6,2.24,0,1.28.32,3.85.32,5.77,0,1.54-.26,5.26-.26,6.61s-1.67,2.44-3.59,2.44c-5.07,0-7.18.19-8.66.19-1.35,0-6.09-.19-7.38-.26-1.48-.06-2.57-1.28-2.57-2.57.06-2.63-.32-7.37-.32-8.66,0-1.6.13-4.49.96-7.05,1.28-3.85,1.54-6.35,2.25-8.98.32-1.22.64-1.92.64-2.57s-.32-1.28-.96-1.28-.71.32-1.28.32c-1.15,0-1.92-1.03-1.92-2.89s.32-4.62.32-5.77,0-2.89.32-5.45c.39-3.21,2.37-3.21,4.81-3.21,1.48,0,5.45-.19,7.7-.19Z"/>
  <path class="cls-1" d="m176.84,9.44c1.28,0,8.98.26,10.26.26,2.56,0,4.04,1.03,4.04,2.89,0,1.28.26,2.5.45,4.17.32,2.89.32,6.41.96,12.19,1.22,11.22,1.41,16.55,1.92,20.84.32,2.57.64,3.21.64,5.77,0,2.24-1.8,2.44-3.85,2.31-1.92-.13-6.09-.13-9.62-.06-1.92.06-3.21-.64-3.21-1.6,0-1.6,0-3.85-.32-6.41-.13-1.22-.32-1.47-1.28-1.47s-1.09.83-1.28,2.44c-.19,1.73,0,3.21,0,4.81,0,1.28-1.92,2.31-3.53,2.24-1.28-.19-7.95,0-9.94,0-1.6,0-2.89-.64-2.89-2.24,0-1.28.13-1.48.32-3.21.45-4.3,1.03-11.54,1.92-20.52.96-9.3,1.03-12.19,1.28-15.71.13-1.6.32-2.24.32-3.53,0-1.92,1.6-2.89,4.49-2.89,2.25,0,7.38-.26,9.3-.26ZM169.78,0c.7-.06,1.86.32,2.24.77.38.45.64.58,1.28.58.32,0,.71-.19,1.6-.64s2.5-.64,3.85-.58,5.45-.06,7.38-.13c1.92-.06,4.55.96,5.45,1.99.9,1.03.96,1.92.96,4.17,0,.96-.96,1.99-2.57,1.92-1.22-.06-3.91,0-4.81.06-.9.06-2.37-.39-2.69-.71s-.51-.64-1.15-.64c-.32,0-1.09.19-1.92.64-.83.45-3.01.71-4.49.64-1.47-.06-4.55-.13-6.73,0-2.18.13-3.72-.58-5.13-1.92-1.03-.96-1.28-1.6-1.28-3.85,0-1.28,1.22-2.18,2.24-2.24,1.6-.13,5.07,0,5.77-.06Zm1.97,33.04c.08,5.04,1.78,5.35,5.35,5.35s6.3-.12,5.35-5.35c-.51-3.59,0-6.36-5.93-6.36-4.76,0-4.32,2.58-4.76,6.36Z"/>
  <path class="cls-1" d="m212.76,9.37c4.3,0,8.34.32,10.58.32,3.53,0,6.41,3.53,6.41,7.38,0,7.37.64,15.07.64,17,0,4.81-.32,5.13-.32,16.03,0,3.53-1.6,7.37-5.13,7.7-3.85.32-8.72-.19-11.86.13-1.92.19-8.72-.13-10.26-.13-3.66,0-6.6-3.21-6.6-6.41,0-18.86-.13-20.14-.13-22.45,0-3.21.45-7.7.45-10.58,0-5.13,2.76-8.66,5.64-8.66,4.17,0,7.95-.32,10.58-.32Zm.64,32.07c1.28,0,4.68-.3,4.68-1.26-.06-3.53.06-9.28,0-10.69s0-1.78-5-2.16c-1.34-.1-3.72-.15-3.91,2.16-.26,3.53.06,8.45,0,10.69-.06,1.35,2.63,1.26,4.23,1.26Z"/>
</svg>